<svg width="599" height="70" fill="none" xmlns="http://www.w3.org/2000/svg"><path d="M31.815 43.12V10.416l-.256.064c-2.176.448-4.416.576-6.592.448L11.4 9.776C8.391 9.584 3.847 9.328.967 12.08c.384-2.496 1.024-5.504 4.224-7.872C7.88 2.224 13.32 1.968 18.12 2.544l11.84 1.28c3.008.32 7.104.32 10.112-.896.128.448-.512 1.28-.896 1.984-.704.96-1.344 1.728-1.6 2.048-.256.32-1.088 1.024-2.048 1.728-.832.512-2.688 1.408-2.688 1.408v32.192s1.28-1.024 1.728-1.408c.448-.512.832-.96 1.152-1.344.192-.32.512-.768.832-1.216.256-.256.64-1.344 1.024-.768-1.664 6.912-5.184 13.376-12.736 16.128-5.248 1.856-11.776 1.408-16.64-2.304C2.887 47.408.775 40.368 1.095 34.864c.448-7.296 2.304-15.04 11.072-21.632-4.928 7.104-6.272 17.92-3.712 25.152 1.728 4.48 4.352 7.296 8.512 8.448 3.648 1.024 10.304-.064 13.824-2.816.384-.256.704-.576 1.024-.896ZM24.967 14v16.96c0 3.904.512 6.976-4.16 10.688a26.398 26.398 0 0 1-1.856 1.28c-.448.192-1.6.896-2.048.768 1.024-1.664 1.28-2.368 1.28-4.032V19.44l-2.432 1.536v-1.152L24.967 14Zm41.929 6.272c1.088 1.6 2.56 3.904 4.928 4.288.704.064 1.408 0 3.008-.832-.832 2.496-1.28 3.008-3.008 4.608l-.448 16.896c-.064 3.2 0 3.328 1.024 6.656-2.24-.768-5.696-.832-7.296.768-.64.64-1.024 1.472-.64 2.688.448 1.472 1.472 2.048 2.56 3.456.768 1.088 1.152 2.176 1.152 3.648-.064 2.56-1.216 4.288-4.352 5.248 3.328-4.8.512-7.424-.128-12.288-.064-.96 0-1.6.32-2.24.704-.896 1.344-1.408 1.344-2.368.128-.384.256-4.096.256-4.544v-17.28c-.704-.384-.896-.576-1.984-1.344-1.088-.832-2.56-1.856-2.56-1.856s-4.8 3.968-4.8 4.096l-.32 16.96c.128.256 1.92 1.28 2.304 1.408.832.64 1.984 1.024 2.24 1.92-2.368 1.216-4.352 2.304-6.848 4.672-2.304-3.2-4.096-4.544-7.296-3.776.384-.96.192-1.344 1.024-2.304 1.28-1.344.768-.768 2.176-1.728.704-.64.448-3.328.512-4.608l.576-28.16c0-2.304-.064-2.816-1.472-4.992 2.944-1.28 6.336-2.816 9.472-4.992V5.36c-1.792 6.464-1.92 5.312-1.984 9.6L56.4 27.824l-.064.704 10.56-8.256Zm31.372-.768c.896 3.072 4.48 9.536 6.592 11.904L90.652 41.52v3.968c.192.576.384.576 1.216.832 2.688 1.472 1.728.576 4.16 2.688.64-.192 1.344-1.152 2.048-1.216l.32.32-7.744 6.72c-2.752-3.52-6.144-4.416-9.6-3.52.32-1.408.448-1.984.832-2.624.384-.64.768-1.024.96-1.216.64-.64.768-.256 1.28-1.024.448-.576.32-4.672.32-5.312V29.808c0-2.368 0-3.584-1.6-5.888 5.696.192 9.408-.128 15.424-4.416Zm-7.552 19.584.384.32c3.904-2.368 3.712-2.112 7.296-5.312 0-.256-.32-1.088-.384-1.216l-1.792-3.264c-.256-.448-3.2-5.696-3.84-5.824-.128 0-1.088.32-1.28.576-.192.256-.384 5.376-.384 5.76v8.96Zm52.096-27.136v23.104c5.12-2.752 7.744-2.304 13.312-.576.064 0 .384.128.384.128l.448.192c-.128-.384-.704-1.792-.832-2.176l-5.248-13.056c-1.408-3.392-3.456-7.424-7.232-9.984-.128-.064-.832-.32-.832-.32v2.688Zm17.024 11.2s.576 1.6.576 1.728l4.096 10.88c.384 1.088 1.728 4.352 3.84 7.04 0 0 .896.768.896.448v-20.16c-3.84 1.28-5.632 1.088-9.408.064Zm-1.984-4.992c.256.576 1.472 3.392 1.472 3.392s.192.256 2.048.768c2.56.64 5.12.512 6.976-.32.832-.32.96-.64.896-1.472v-8.704s-1.216-.192-1.856-.384c-1.152-.256-1.344-.32-1.792-.448-.64-.256-3.2-1.408-3.84-1.728l-1.664 1.344-.384-.512c1.792-1.664 3.392-3.52 4.992-5.504l.448-.64.256-.32.256-.448c.192-.256.704-1.024 1.152-1.216l.256.064c2.88 2.112 5.824 3.072 8.576 1.92.448-.192.832-.384 1.216-.704l.384-.128.192-.32c.512-.384.384-.384.768-.32-.32 4.096-2.944 7.936-7.296 9.216-.192.064-.64.192-.64.192V54.96c-4.544-1.28-8-8.448-9.728-11.84l-1.024-2.048-1.216-2.624c-.32-.896-.576-1.472-.768-1.984 0 0-.32-.128-.704-.384-.384-.256-4.288-1.472-5.376-1.664-3.008-.384-5.952.064-8.64 2.112v8.32h.448c4.16 0 7.232 1.216 10.048 2.752h.512l.832-.64.384.512c-2.048 2.24-3.968 4.672-5.824 7.104-5.184-3.072-8.448-3.968-13.376-1.984-.064 0-1.024.448-1.472.64-.192.128-1.28.96-1.6.832.768-2.176 1.92-4.352 2.816-5.376.576-.704 1.344-1.344 2.688-2.24.64-.384.64-.384 1.28-.704 1.024-.448 2.304-.768 2.304-.768V31.92h-.576c-1.984.064-2.176-.448-3.072 1.792-.704-.32-.896-.512-1.28-1.408-.256-.64-.192-.896-.384-1.728-.128-1.216 0-2.688.512-3.584.96-2.176 2.368-2.368 4.608-2.56h.192V9.008c-2.24 0-4.8 0-6.336 3.328-.256.512-.384.96-.512 2.304-1.408-4.032-1.152-5.76 1.024-10.048 3.648-3.648 6.336-3.84 9.344-2.88.512.128 1.408.448 2.624 1.216.512.32 1.216 1.024 1.216 1.024l1.024 1.152c1.92 2.112 3.328 3.968 4.864 6.72 1.28 2.304 1.728 3.968 2.752 6.336Zm39.078 1.344c.896 3.072 4.48 9.536 6.592 11.904L189.314 41.52v3.968c.192.576.384.576 1.216.832 2.688 1.472 1.728.576 4.16 2.688.64-.192 1.344-1.152 2.048-1.216l.32.32-7.744 6.72c-2.752-3.52-6.144-4.416-9.6-3.52.32-1.408.448-1.984.832-2.624.384-.64.768-1.024.96-1.216.64-.64.768-.256 1.28-1.024.448-.576.32-4.672.32-5.312V29.808c0-2.368 0-3.584-1.6-5.888 5.696.192 9.408-.128 15.424-4.416Zm-7.552 19.584.384.32c3.904-2.368 3.712-2.112 7.296-5.312 0-.256-.32-1.088-.384-1.216l-1.792-3.264c-.256-.448-3.2-5.696-3.84-5.824-.128 0-1.088.32-1.28.576-.192.256-.384 5.376-.384 5.76v8.96Zm38.013 9.408a52.844 52.844 0 0 0-8.512 6.08c-2.496-3.264-4.672-5.056-8.448-3.904l.448-.96c.704-1.152.96-1.536 1.408-2.048.704-.832 1.472-1.216 1.728-1.984.064-.32.064-4.032.064-4.416v-8.448c0-3.072.512-4.608-2.368-7.424h-.576l-1.28.896c0-.896.576-.96 1.472-1.856l1.152-.832v-.064c.768-.576 1.6-1.216 2.432-1.856l2.432-1.728c3.2 3.008 3.008 5.504 2.944 8.832l-.192 12.16v1.472c0 .448-.064 1.088-.064 1.6 0 1.792-.64 1.216 1.28 2.624 1.92 1.472 1.984 1.408 3.072 2.496 3.968-2.432 3.52-1.28 3.52-6.4v-9.024c0-.832.32-5.952-1.344-7.552l-.96-.96c-.576.32-2.752 1.856-2.752 1.856l-.448-.448 8.192-6.656s.32.064.512.192c3.52 3.008 3.136 6.272 3.2 9.28l-.064 11.2c0 .192-.768 7.296 2.56 9.28.512.32.96.512 2.176.256l2.176-.512c.896-.192.768-1.664.768-2.816v-16c0-3.2-.32-2.176-2.688-4.864-.512.128-.768.384-1.344.768 0 0-.96.704-1.088.704l-.448-.512 8.576-6.528c1.024 1.984 1.92 4.8 4.352 5.376.512.128 1.6-.192 2.304-.384-.832 2.112-.832 2.432-3.2 3.968l-.448 14.464c0 3.072-.192 3.84 1.024 6.592-5.952-.512-11.2-.256-16.896 4.48-.576-.128-2.432-2.368-3.2-3.456-.576-.768-1.472-2.944-1.472-2.944Zm65.936-32.448c2.816-1.472 3.584-2.304 3.584-2.304V3.568h1.152V12.976s9.152-8.064 10.24-9.216c.768 1.792 1.728 4.736 4.352 5.312.704.192 1.28.128 1.92-.064l1.024-.512.256-.128.256-.256.256-.192.256.128c-.384 1.92-.768 2.816-1.728 3.904-.192.128-1.216 1.472-2.112 1.792 0 0-.064-.576-.064 1.792v27.648c0 8.384-2.112 10.816-11.328 11.968l-2.432.32c-1.024.192-7.872 1.088-9.28 4.032-.32.704-.384 1.728.064 2.496.448.704 1.28 1.152 2.432 1.152 1.792 0 3.904-1.664 5.632-2.752 2.176-1.472 3.712-2.368 5.504-2.688 1.792-.384 3.712-.32 5.504 1.472 1.408 1.344 2.048 3.2 1.664 4.864-.256 1.664-1.408 3.328-3.2 4.096-.704.32-1.472.448-2.24.448-.192-.128-1.984-.128-1.728-.832 1.664.32 3.264.448 4.672-1.024.832-.832 1.28-1.856 1.088-2.56-.128-.704-.704-1.408-1.472-1.728-1.216-.512-2.688.128-4.736 1.472-5.824 3.776-6.464 5.504-10.816 4.352-1.92-.576-3.328-1.92-4.096-4.096-.576-1.472-.512-3.84.832-5.504 1.664-2.24 3.264-2.496 5.376-3.328-8.128-3.456-7.872-3.264-7.872-11.392V31.28c-2.688-.512-3.904-.64-5.376 2.752-.704-2.24-1.536-6.592.896-8.896 1.024-1.024 2.624-1.216 4.672-1.216v-4.672c0-.128.256-6.784-1.536-8.256-.512-.384-1.408-.768-2.368-.384-1.92.768-2.24 2.432-2.688 4.032-.704-3.072-.384-7.552 2.816-9.984 1.92-1.344 4.928-1.536 6.912-.448 4.096 2.176 3.712 7.296 3.712 10.688v1.152Zm1.856.256-1.92 1.088V45.68c0 2.944-.32 4.864 2.816 7.68.64.32.96.384.96.384V15.28l-1.856 1.024Zm5.376 37.76c1.088-.32 1.728-.32 2.304-.64 3.776-2.048 3.328-7.232 3.328-9.152v-5.568c-3.2-2.24-6.272-1.92-8.064-.128v15.36s1.792.32 2.432.128Zm-.704-40.768c-.256.192-1.728 1.216-1.728 1.216v7.808s.832.704 2.176 1.28c1.664.576 3.712.64 5.12-.256 1.088-.64.896-.768.896-1.92v-7.808c-1.088-.192-1.728-1.472-3.456-2.752-.64.384-2.24 1.856-3.008 2.432Zm-1.728 12.672v11.136c3.008-1.984 5.056-1.344 8.128.128V24.496c-3.328 1.152-5.504.96-8.128-.64v2.112Zm23.74 19.584c3.2 1.92 2.944 1.856 5.376 4.608.256-.064 1.984-.448 2.496-.576.512-.192 2.112-.576 2.112-.576l.512-20.224c0-.576-1.024-.832-1.408-.96-.512-.32-.96-.576-1.6-1.088-.768-.64-1.344-1.28-1.408-1.344-.512-.576-.448-1.024-1.152-1.344-.128 0-3.904.896-3.904.896-.704.448-.576 1.216-.576 2.688.064.064-.448 17.92-.448 17.92Zm16.832 4.544-.128.32c-5.952-1.024-12.288-.064-17.856 4.416-3.2-3.584-5.12-4.224-8.576-3.968.448-1.152.064-1.216 1.152-2.496.256-.32.576-.64 1.152-1.152.576-.512.896-.64 1.344-.96.384-.448.448-4.736.448-5.184V29.68c0-2.88.064-3.072-.896-5.44 7.04.448 19.072-4.096 19.072-4.096h.256c1.92 3.2 3.2 4.416 6.272 4.224-.192.64-.64 1.28-1.408 2.048-1.024 1.024-1.536.96-1.536 1.792v19.584c0 .32.128 1.28.704 2.304Zm13.054-29.888c3.584 3.392 3.264 5.12 3.84 8.448.32-.128.832-.832 1.152-1.216l5.376-7.232c.896 1.472 1.92 3.968 4.032 4.032.192 0 .512 0 1.024-.192l.512-.32.256-.128.32.064c-.192 2.688-1.536 5.248-4.16 6.208-1.92.64-3.52-.128-5.824-2.24-3.904 3.84-3.136 3.264-3.2 8.128v10.304c1.472.832 2.944 1.728 4.288 2.688h.256l1.408-.384c-2.368 2.048-3.456 2.752-6.08 6.528-4.096-3.392-5.696-5.504-10.176-3.456 0-.64.128-.576.32-1.28.064-.128.384-.704.832-1.344.512-.704.96-1.088 1.152-1.28.32-.192.896-.64 1.344-.96.576-.64.64-4.672.64-5.44v-6.784c0-.768.768-5.248-1.408-6.848a4.977 4.977 0 0 0-1.28-.576c-.384 0-.576-.064-.704-.064h-.32l-.256-.256c3.392-2.816 2.688-2.496 5.696-5.76l.96-.64ZM386.381 3.76v1.024c-2.112 6.72-2.304 3.392-2.304 10.176v12.16l1.792-1.088 8.512-6.4c1.216 3.52 1.664 4.736 4.544 8.704l-1.472 1.216c-1.856 1.28-3.584 2.624-5.184 4.16l.064.32c1.728 1.92 2.112 2.816 2.88 5.248l.384 1.472c.96 3.456 2.24 9.024 6.976 7.616-2.368 2.176-3.712 3.456-6.08 6.208-.768 0-1.664-.448-2.432-1.216-.512-.512-1.024-1.216-1.664-2.624-.64-1.28-1.216-3.328-1.536-5.056l-.576-2.624c-.256-1.28-.512-2.112-.896-2.88-.256-.576-.512-.96-.832-1.408-.448-.64-.64-1.6-1.216-1.216-3.712 3.008-3.328 1.28-3.328 6.848 0 1.856-.256 1.536 1.408 2.688.832.64 1.024.704 1.344.96.32.384 1.088.768 1.28 1.344-2.112 1.28-3.392 2.048-6.4 4.864-2.688-2.944-3.712-3.584-7.168-3.776.128-.32.768-1.6 1.344-2.048.064-.128 1.856-1.664 1.92-1.984V14.704c0-1.728.256-3.456-1.536-6.016 3.968-.64 6.208-1.92 10.176-4.928Zm7.104 27.584-2.688-5.824s-.704-1.28-.832-1.408l-5.952 3.84V38.96l9.472-7.616Zm67.993 11.776V10.416l-.256.064c-2.176.448-4.416.576-6.592.448l-13.568-1.152c-3.008-.192-7.552-.448-10.432 2.304.384-2.496 1.024-5.504 4.224-7.872 2.688-1.984 8.128-2.24 12.928-1.664l11.84 1.28c3.008.32 7.104.32 10.112-.896.128.448-.512 1.28-.896 1.984-.704.96-1.344 1.728-1.6 2.048-.256.32-1.088 1.024-2.048 1.728-.832.512-2.688 1.408-2.688 1.408v32.192s1.28-1.024 1.728-1.408c.448-.512.832-.96 1.152-1.344.192-.32.512-.768.832-1.216.256-.256.64-1.344 1.024-.768-1.664 6.912-5.184 13.376-12.736 16.128-5.248 1.856-11.776 1.408-16.64-2.304-5.312-3.968-7.424-11.008-7.104-16.512.448-7.296 2.304-15.04 11.072-21.632-4.928 7.104-6.272 17.92-3.712 25.152 1.728 4.48 4.352 7.296 8.512 8.448 3.648 1.024 10.304-.064 13.824-2.816.384-.256.704-.576 1.024-.896ZM454.63 14v16.96c0 3.904.512 6.976-4.16 10.688a26.398 26.398 0 0 1-1.856 1.28c-.448.192-1.6.896-2.048.768 1.024-1.664 1.28-2.368 1.28-4.032V19.44l-2.432 1.536v-1.152L454.63 14Zm29.448 6.336c2.112 3.2 3.2 4.096 6.336 3.008-.384 1.6.128 1.28-1.152 2.816-.448.512-.768.832-1.216 1.216-.384.256-1.024.512-1.216 1.088v11.392c0 .448-.96 6.656 1.856 8.576.576.32 1.024.448 2.56.448-3.456 3.456-3.136 3.008-5.248 5.76-6.08-2.368-5.504-6.656-5.44-11.392V28.912a2.561 2.561 0 0 0-1.344-1.088c-.512-.448-.896-.896-1.472-1.408l-1.792.704c0-.768.832-1.088 1.472-1.536.512-.448 1.408-.768 2.048-1.472l1.6-1.216c.448-.384.832-.704 1.536-1.408.32-.256.96-1.152 1.472-1.152Zm.576-10.624c1.6 2.944 2.112 3.264 4.8 3.136-1.408 2.24-2.688 3.456-4.608 3.584-.96.128-1.792-.064-2.688-.64-.128-.064-.96-.704-1.408-.96-.576-.32-1.024-.256-1.408-.256l-.448-.512 4.544-3.456c.512-.32.64-.64 1.216-.896Zm19.082 9.536c2.24 1.984 2.624 2.304 3.2 4.672.192.704.256 1.28.384 2.496 0 .448.064 2.112.384 2.304 1.152-.768 2.304-1.664 3.456-2.56l2.048-1.92c.512-.448 1.024-.96 1.536-1.408l3.392-3.008h.192c3.2 3.264 3.008 6.336 3.2 8.896.448.512.448.32.768 0 .256-.128.512-.32.704-.512.448-.448.96-.64 1.472-1.088l8.448-6.912c.256.704.704 1.792 1.28 2.432 1.472 1.792 2.496 1.856 4.608 1.344 0 .64-.768 1.856-1.152 2.304-.384.448-1.6 1.408-1.856 2.048-.128.192-.384 3.392-.384 4.48v8.832c-.064 1.728.128 5.248.832 6.144.832.96 1.92 1.152 3.52 1.152-2.24 2.112-3.776 3.776-5.376 6.144-5.696-2.752-5.248-6.848-5.12-11.072l.384-10.496c.128-5.056 1.088-3.264-3.2-6.784-.448 0-.896.448-1.344.768-.256.192-.512.384-.64.512l-.384.192-.256.192c-.704.768-.64.384-1.344 1.152-.704.448-.768.256-1.216.96v16.32c.768.576.832.64 1.664 1.28 1.152.832 1.856 1.728 1.92 2.048-2.176 1.344-4.224 2.944-6.272 4.608-2.432-3.904-4.096-4.16-6.592-5.056 3.968-4.096 3.072-2.112 3.264-6.976v-8.512c0-.896.384-6.848-1.792-7.936-.896-.448-1.664.256-3.136 1.472-.832.768-.64.576-1.472 1.216-.704.704-.832.576-1.408 1.408l-.32 11.008v4.992s.256.256 1.088.896c.256.192 1.664.896 1.792 1.344-1.92 1.792-3.712 3.712-5.504 5.696-2.432-3.584-3.584-3.712-7.04-4.928.32-.704 1.152-1.28 1.728-1.728 1.152-.96.832-.768 1.92-1.408.128-.064.064-1.024.064-1.024V33.52c.064-3.904.832-6.784-3.584-7.744 3.2-2.752 3.648-3.264 6.144-6.528Zm59.457.256c.896 3.072 4.48 9.536 6.592 11.904L555.577 41.52v3.968c.192.576.384.576 1.216.832 2.688 1.472 1.728.576 4.16 2.688.64-.192 1.344-1.152 2.048-1.216l.32.32-7.744 6.72c-2.752-3.52-6.144-4.416-9.6-3.52.32-1.408.448-1.984.832-2.624.384-.64.768-1.024.96-1.216.64-.64.768-.256 1.28-1.024.448-.576.32-4.672.32-5.312V29.808c0-2.368 0-3.584-1.6-5.888 5.696.192 9.408-.128 15.424-4.416Zm-7.552 19.584.384.32c3.904-2.368 3.712-2.112 7.296-5.312 0-.256-.32-1.088-.384-1.216l-1.792-3.264c-.256-.448-3.2-5.696-3.84-5.824-.128 0-1.088.32-1.28.576-.192.256-.384 5.376-.384 5.76v8.96Zm35.516-18.88c1.536 1.6 2.56 2.624 4.352 2.112.576-.128 1.024-.384 1.472-.768.128-.256.576-1.408 1.216-1.152-.512 4.48-2.624 6.784-6.336 11.328l-1.344 1.664h5.76c.384 0 1.344-.064 1.664.32-.448 1.024-.64 1.6-.704 3.008V47.344c.064 1.28.064 2.368.64 3.712-6.336-1.024-9.664-1.344-15.424 3.712-1.792-1.856-3.776-3.648-5.76-3.456-.576.064-1.792.448-2.56 1.28-.384.384-.32 1.152-.64 1.984-.064.192-.256 0-.32 0-.128-4.736 3.072-8 7.168-12.608l1.088-1.472c-.32-.192-.768-.256-1.088-.256h-3.52c-.576-.192-.448.256-.896-.128 1.152-2.944.96-3.2.96-6.976v-5.312c0-1.088-.064-1.6-.128-1.984l-.32-.96c-.192-.32-.128-.192-.448-.512l-.128-.32.128-.256c4.224.576 10.496-.256 15.168-3.584Zm-6.592 4.16c-.384 0-1.408.128-1.408.576l-.256 10.816v1.152l1.6.384 4.864-4.736c1.92-2.048 4.672-4.544 6.528-8.192h-.32l-.256.256-.576.576c-.384.32-.768.512-1.152.896a5.959 5.959 0 0 1-2.368.832c-2.112.256-3.264-.704-5.184-2.944-.448 0-1.344.384-1.472.384Zm-6.592 23.36c1.152-.448 2.368-.768 2.944-.832 3.072-.448 4.352.384 7.104 3.264.32 0 1.344-.384 1.664-.384.448-.128 1.536-.128 1.536-.128V38.064c0-.832.064-1.024-.192-1.472-.512-.32-2.752-.256-3.2-.256-.128 0-.384.064-1.024.768l-3.584 3.84s-3.008 2.816-4.8 4.672c-.96 1.024-2.56 2.88-2.56 2.88s-.192.32-.256.448c-.384.96.64-.512 2.368-1.216Z" fill="#000"/></svg>