<svg width="599" height="70" viewBox="0 0 599 70" fill="none" xmlns="http://www.w3.org/2000/svg">
<path d="M31.8152 43.12C31.8152 43.12 31.8152 39.728 31.8152 39.344C31.8152 39.344 31.8152 37.808 31.8152 37.744V11.888C31.8152 11.632 31.8152 10.416 31.8152 10.416L31.5592 10.48C29.3832 10.928 27.1432 11.056 24.9672 10.928L11.3992 9.776C8.39124 9.584 3.84724 9.328 0.967238 12.08C1.35124 9.584 1.99124 6.576 5.19124 4.208C7.87924 2.224 13.3192 1.968 18.1192 2.544L29.9592 3.824C32.9672 4.144 37.0632 4.144 40.0712 2.928C40.1992 3.376 39.5592 4.208 39.1752 4.912C38.4712 5.872 37.8312 6.64 37.5752 6.96C37.3192 7.28 36.4872 7.984 35.5272 8.688C34.6952 9.2 32.8392 10.096 32.8392 10.096C32.8392 10.096 32.8392 14.32 32.8392 14.96V42.288C32.8392 42.288 34.1192 41.264 34.5672 40.88C35.0152 40.368 35.3992 39.92 35.7192 39.536C35.9112 39.216 36.2312 38.768 36.5512 38.32C36.8072 38.064 37.1912 36.976 37.5752 37.552C35.9112 44.464 32.3912 50.928 24.8392 53.68C19.5912 55.536 13.0632 55.088 8.19924 51.376C2.88724 47.408 0.775238 40.368 1.09524 34.864C1.54324 27.568 3.39924 19.824 12.1672 13.232C7.23924 20.336 5.89524 31.152 8.45524 38.384C10.1832 42.864 12.8072 45.68 16.9672 46.832C20.6152 47.856 27.2712 46.768 30.7912 44.016C31.1752 43.76 31.4952 43.44 31.8152 43.12ZM24.9672 14V30.96C24.9672 34.864 25.4792 37.936 20.8072 41.648C20.0392 42.224 19.2712 42.736 18.9512 42.928C18.5032 43.12 17.3512 43.824 16.9032 43.696C17.9272 42.032 18.1832 41.328 18.1832 39.664V19.44L15.7512 20.976V19.824L24.9672 14ZM66.8957 20.272C67.9837 21.872 69.4557 24.176 71.8237 24.56C72.5277 24.624 73.2317 24.56 74.8317 23.728C73.9997 26.224 73.5517 26.736 71.8237 28.336L71.3757 45.232C71.3117 48.432 71.3757 48.56 72.3997 51.888C70.1597 51.12 66.7037 51.056 65.1037 52.656C64.4637 53.296 64.0797 54.128 64.4637 55.344C64.9117 56.816 65.9357 57.392 67.0237 58.8C67.7917 59.888 68.1757 60.976 68.1757 62.448C68.1117 65.008 66.9597 66.736 63.8237 67.696C67.1517 62.896 64.3357 60.272 63.6957 55.408C63.6317 54.448 63.6957 53.808 64.0157 53.168C64.7197 52.272 65.3597 51.76 65.3597 50.8C65.4877 50.416 65.6157 46.704 65.6157 46.256V34.224C65.6157 33.84 65.6157 32.24 65.6157 32.24V30.448C65.6157 29.552 65.6157 28.976 65.6157 28.976C64.9117 28.592 64.7197 28.4 63.6317 27.632C62.5437 26.8 61.0717 25.776 61.0717 25.776C61.0717 25.776 56.2717 29.744 56.2717 29.872L55.9517 46.832C56.0797 47.088 57.8717 48.112 58.2557 48.24C59.0877 48.88 60.2397 49.264 60.4957 50.16C58.1277 51.376 56.1437 52.464 53.6477 54.832C51.3437 51.632 49.5517 50.288 46.3517 51.056C46.7357 50.096 46.5437 49.712 47.3757 48.752C48.6557 47.408 48.1437 47.984 49.5517 47.024C50.2557 46.384 49.9997 43.696 50.0637 42.416L50.6397 14.256C50.6397 11.952 50.5757 11.44 49.1677 9.264C52.1117 7.984 55.5037 6.448 58.6397 4.272V5.36C56.8477 11.824 56.7197 10.672 56.6557 14.96L56.3997 27.824L56.3357 28.528L66.8957 20.272ZM98.2677 19.504C99.1637 22.576 102.748 29.04 104.86 31.408L90.6517 41.52V44.208V45.488C90.8437 46.064 91.0357 46.064 91.8677 46.32C94.5557 47.792 93.5957 46.896 96.0277 49.008C96.6677 48.816 97.3717 47.856 98.0757 47.792L98.3957 48.112L90.6517 54.832C87.8997 51.312 84.5077 50.416 81.0517 51.312C81.3717 49.904 81.4997 49.328 81.8837 48.688C82.2677 48.048 82.6517 47.664 82.8437 47.472C83.4837 46.832 83.6117 47.216 84.1237 46.448C84.5717 45.872 84.4437 41.776 84.4437 41.136V29.808C84.4437 27.44 84.4437 26.224 82.8437 23.92C88.5397 24.112 92.2517 23.792 98.2677 19.504ZM90.7157 39.088L91.0997 39.408C95.0037 37.04 94.8117 37.296 98.3957 34.096C98.3957 33.84 98.0757 33.008 98.0117 32.88L96.2197 29.616C95.9637 29.168 93.0197 23.92 92.3797 23.792C92.2517 23.792 91.2917 24.112 91.0997 24.368C90.9077 24.624 90.7157 29.744 90.7157 30.128V39.088ZM142.812 11.952V32.752C142.812 33.584 142.812 35.056 142.812 35.056C147.932 32.304 150.556 32.752 156.124 34.48C156.188 34.48 156.508 34.608 156.508 34.608L156.956 34.8C156.828 34.416 156.252 33.008 156.124 32.624L150.876 19.568C149.468 16.176 147.42 12.144 143.644 9.584C143.516 9.52 142.812 9.264 142.812 9.264C142.812 9.264 142.812 11.376 142.812 11.952ZM159.836 23.152C159.836 23.152 160.412 24.752 160.412 24.88L164.508 35.76C164.892 36.848 166.236 40.112 168.348 42.8C168.348 42.8 169.244 43.568 169.244 43.248C169.244 43.12 169.244 42.096 169.244 42.096V23.664V23.088C165.404 24.368 163.612 24.176 159.836 23.152ZM157.852 18.16C158.108 18.736 159.324 21.552 159.324 21.552C159.324 21.552 159.516 21.808 161.372 22.32C163.932 22.96 166.492 22.832 168.348 22C169.18 21.68 169.308 21.36 169.244 20.528V11.824C169.244 11.824 168.028 11.632 167.388 11.44C166.236 11.184 166.044 11.12 165.596 10.992C164.956 10.736 162.396 9.584 161.756 9.264L160.092 10.608L159.708 10.096C161.5 8.432 163.1 6.576 164.7 4.592L165.148 3.952L165.404 3.632L165.66 3.184C165.852 2.928 166.364 2.16 166.812 1.968L167.068 2.032C169.948 4.144 172.892 5.104 175.644 3.952C176.092 3.76 176.476 3.568 176.86 3.248L177.244 3.12L177.436 2.8C177.948 2.416 177.82 2.416 178.204 2.48C177.884 6.576 175.26 10.416 170.908 11.696C170.716 11.76 170.268 11.888 170.268 11.888V54.96C165.724 53.68 162.268 46.512 160.54 43.12L159.516 41.072L158.3 38.448C157.98 37.552 157.724 36.976 157.532 36.464C157.532 36.464 157.212 36.336 156.828 36.08C156.444 35.824 152.54 34.608 151.452 34.416C148.444 34.032 145.5 34.48 142.812 36.528V44.848H143.26C147.42 44.848 150.492 46.064 153.308 47.6H153.82L154.652 46.96L155.036 47.472C152.988 49.712 151.068 52.144 149.212 54.576C144.028 51.504 140.764 50.608 135.836 52.592C135.772 52.592 134.812 53.04 134.364 53.232C134.172 53.36 133.084 54.192 132.764 54.064C133.532 51.888 134.684 49.712 135.58 48.688C136.156 47.984 136.924 47.344 138.268 46.448C138.908 46.064 138.908 46.064 139.548 45.744C140.572 45.296 141.852 44.976 141.852 44.976C141.852 44.976 141.852 43.568 141.852 42.48V41.008C141.852 40.56 141.852 39.984 141.852 39.408V34.352C141.852 33.2 141.852 33.072 141.852 31.92H141.276C139.292 31.984 139.1 31.472 138.204 33.712C137.5 33.392 137.308 33.2 136.924 32.304C136.668 31.664 136.732 31.408 136.54 30.576C136.412 29.36 136.54 27.888 137.052 26.992C138.012 24.816 139.42 24.624 141.66 24.432C141.724 24.432 141.788 24.432 141.852 24.432C141.852 24.432 141.852 22.96 141.852 22.704V10.992C141.852 10.288 141.852 9.008 141.852 9.008C139.612 9.008 137.052 9.008 135.516 12.336C135.26 12.848 135.132 13.296 135.004 14.64C133.596 10.608 133.852 8.88 136.028 4.592C139.676 0.943996 142.364 0.751999 145.372 1.712C145.884 1.84 146.78 2.16 147.996 2.928C148.508 3.248 149.212 3.952 149.212 3.952L150.236 5.104C152.156 7.216 153.564 9.072 155.1 11.824C156.38 14.128 156.828 15.792 157.852 18.16ZM196.93 19.504C197.826 22.576 201.41 29.04 203.522 31.408L189.314 41.52V44.208V45.488C189.506 46.064 189.698 46.064 190.53 46.32C193.218 47.792 192.258 46.896 194.69 49.008C195.33 48.816 196.034 47.856 196.738 47.792L197.058 48.112L189.314 54.832C186.562 51.312 183.17 50.416 179.714 51.312C180.034 49.904 180.162 49.328 180.546 48.688C180.93 48.048 181.314 47.664 181.506 47.472C182.146 46.832 182.274 47.216 182.786 46.448C183.234 45.872 183.106 41.776 183.106 41.136V29.808C183.106 27.44 183.106 26.224 181.506 23.92C187.202 24.112 190.914 23.792 196.93 19.504ZM189.378 39.088L189.762 39.408C193.666 37.04 193.474 37.296 197.058 34.096C197.058 33.84 196.738 33.008 196.674 32.88L194.882 29.616C194.626 29.168 191.682 23.92 191.042 23.792C190.914 23.792 189.954 24.112 189.762 24.368C189.57 24.624 189.378 29.744 189.378 30.128V39.088ZM227.391 48.496C224.383 50.224 221.503 52.272 218.879 54.576C216.383 51.312 214.207 49.52 210.431 50.672L210.879 49.712C211.583 48.56 211.839 48.176 212.287 47.664C212.991 46.832 213.759 46.448 214.015 45.68C214.079 45.36 214.079 41.648 214.079 41.264V32.816C214.079 29.744 214.591 28.208 211.711 25.392H211.135L209.855 26.288C209.855 25.392 210.431 25.328 211.327 24.432L212.479 23.6V23.536C213.247 22.96 214.079 22.32 214.911 21.68L217.343 19.952C220.543 22.96 220.351 25.456 220.287 28.784L220.095 40.944V42.416C220.095 42.864 220.031 43.504 220.031 44.016C220.031 45.808 219.391 45.232 221.311 46.64C223.231 48.112 223.295 48.048 224.383 49.136C228.351 46.704 227.903 47.856 227.903 42.736V33.712C227.903 32.88 228.223 27.76 226.559 26.16C225.791 25.392 225.599 25.2 225.599 25.2C225.023 25.52 222.847 27.056 222.847 27.056L222.399 26.608L230.591 19.952C230.591 19.952 230.911 20.016 231.103 20.144C234.623 23.152 234.239 26.416 234.303 29.424L234.239 40.624C234.239 40.816 233.471 47.92 236.799 49.904C237.311 50.224 237.759 50.416 238.975 50.16L241.151 49.648C242.047 49.456 241.919 47.984 241.919 46.832C241.919 46.384 241.919 45.808 241.919 45.232C241.919 44.848 241.919 44.208 241.919 43.696V30.832C241.919 27.632 241.599 28.656 239.231 25.968C238.719 26.096 238.463 26.352 237.887 26.736C237.887 26.736 236.927 27.44 236.799 27.44L236.351 26.928L244.927 20.4C245.951 22.384 246.847 25.2 249.279 25.776C249.791 25.904 250.879 25.584 251.583 25.392C250.751 27.504 250.751 27.824 248.383 29.36L247.935 43.824C247.935 46.896 247.743 47.664 248.959 50.416C243.007 49.904 237.759 50.16 232.063 54.896C231.487 54.768 229.631 52.528 228.863 51.44C228.287 50.672 227.391 48.496 227.391 48.496ZM293.327 16.048C296.143 14.576 296.911 13.744 296.911 13.744C296.911 13.744 296.911 8.176 296.911 8.048V3.568H298.063V10.992C298.063 11.056 298.063 12.976 298.063 12.976C298.063 12.976 307.215 4.912 308.303 3.76C309.071 5.552 310.031 8.496 312.655 9.072C313.359 9.264 313.935 9.2 314.575 9.008L315.599 8.496L315.855 8.368L316.111 8.112L316.367 7.92L316.623 8.048C316.239 9.968 315.855 10.864 314.895 11.952C314.703 12.08 313.679 13.424 312.783 13.744C312.783 13.744 312.719 13.168 312.719 15.536V43.184C312.719 51.568 310.607 54 301.391 55.152L298.959 55.472C297.935 55.664 291.087 56.56 289.679 59.504C289.359 60.208 289.295 61.232 289.743 62C290.191 62.704 291.023 63.152 292.175 63.152C293.967 63.152 296.079 61.488 297.807 60.4C299.983 58.928 301.519 58.032 303.311 57.712C305.103 57.328 307.023 57.392 308.815 59.184C310.223 60.528 310.863 62.384 310.479 64.048C310.223 65.712 309.071 67.376 307.279 68.144C306.575 68.464 305.807 68.592 305.039 68.592C304.847 68.464 303.055 68.464 303.311 67.76C304.975 68.08 306.575 68.208 307.983 66.736C308.815 65.904 309.263 64.88 309.071 64.176C308.943 63.472 308.367 62.768 307.599 62.448C306.383 61.936 304.911 62.576 302.863 63.92C297.039 67.696 296.399 69.424 292.047 68.272C290.127 67.696 288.719 66.352 287.951 64.176C287.375 62.704 287.439 60.336 288.783 58.672C290.447 56.432 292.047 56.176 294.159 55.344C286.031 51.888 286.287 52.08 286.287 43.952V32.624C286.287 32.304 286.287 31.28 286.287 31.28C283.599 30.768 282.383 30.64 280.911 34.032C280.207 31.792 279.375 27.44 281.807 25.136C282.831 24.112 284.431 23.92 286.479 23.92C286.479 23.792 286.479 22.192 286.479 22.192V19.248C286.479 19.12 286.735 12.464 284.943 10.992C284.431 10.608 283.535 10.224 282.575 10.608C280.655 11.376 280.335 13.04 279.887 14.64C279.183 11.568 279.503 7.088 282.703 4.656C284.623 3.312 287.631 3.12 289.615 4.208C293.711 6.384 293.327 11.504 293.327 14.896V16.048ZM295.183 16.304L293.263 17.392V45.68C293.263 48.624 292.943 50.544 296.079 53.36C296.719 53.68 297.039 53.744 297.039 53.744V15.28L295.183 16.304ZM300.559 54.064C301.647 53.744 302.287 53.744 302.863 53.424C306.639 51.376 306.191 46.192 306.191 44.272V41.264C306.191 39.792 306.191 38.704 306.191 38.704C302.991 36.464 299.919 36.784 298.127 38.576V41.968C298.127 41.968 298.127 43.248 298.127 43.824V45.68V53.936C298.127 53.936 299.919 54.256 300.559 54.064ZM299.855 13.296C299.599 13.488 298.127 14.512 298.127 14.512V22.32C298.127 22.32 298.959 23.024 300.303 23.6C301.967 24.176 304.015 24.24 305.423 23.344C306.511 22.704 306.319 22.576 306.319 21.424V19.248C306.319 16.624 306.319 13.616 306.319 13.616C305.231 13.424 304.591 12.144 302.863 10.864C302.223 11.248 300.623 12.72 299.855 13.296ZM298.127 25.968V34.992C298.127 35.568 298.127 37.104 298.127 37.104C301.135 35.12 303.183 35.76 306.255 37.232C306.255 37.232 306.255 36.464 306.255 36.016V26.736C306.255 26.16 306.255 24.496 306.255 24.496C302.927 25.648 300.751 25.456 298.127 23.856V25.968ZM321.867 45.552C325.067 47.472 324.811 47.408 327.243 50.16C327.499 50.096 329.227 49.712 329.739 49.584C330.251 49.392 331.851 49.008 331.851 49.008L332.363 28.784C332.363 28.208 331.339 27.952 330.955 27.824C330.443 27.504 329.995 27.248 329.355 26.736C328.587 26.096 328.011 25.456 327.947 25.392C327.435 24.816 327.499 24.368 326.795 24.048C326.667 24.048 322.891 24.944 322.891 24.944C322.187 25.392 322.315 26.16 322.315 27.632C322.379 27.696 321.867 45.552 321.867 45.552ZM338.699 50.096L338.571 50.416C332.619 49.392 326.283 50.352 320.715 54.832C317.515 51.248 315.595 50.608 312.139 50.864C312.587 49.712 312.203 49.648 313.291 48.368C313.547 48.048 313.867 47.728 314.443 47.216C315.019 46.704 315.339 46.576 315.787 46.256C316.171 45.808 316.235 41.52 316.235 41.072V29.68C316.235 26.8 316.299 26.608 315.339 24.24C322.379 24.688 334.411 20.144 334.411 20.144H334.667C336.587 23.344 337.867 24.56 340.939 24.368C340.747 25.008 340.299 25.648 339.531 26.416C338.507 27.44 337.995 27.376 337.995 28.208C337.995 28.272 337.995 32.368 337.995 32.496V45.232C337.995 46.192 337.995 46.832 337.995 47.792C337.995 48.112 338.123 49.072 338.699 50.096ZM351.753 20.208C355.337 23.6 355.017 25.328 355.593 28.656C355.913 28.528 356.425 27.824 356.745 27.44L362.121 20.208C363.017 21.68 364.041 24.176 366.153 24.24C366.345 24.24 366.665 24.24 367.177 24.048L367.689 23.728L367.945 23.6L368.265 23.664C368.073 26.352 366.729 28.912 364.105 29.872C362.185 30.512 360.585 29.744 358.281 27.632C354.377 31.472 355.145 30.896 355.081 35.76V46.064C356.553 46.896 358.025 47.792 359.369 48.752H359.625L361.033 48.368C358.665 50.416 357.577 51.12 354.953 54.896C350.857 51.504 349.257 49.392 344.777 51.44C344.777 50.8 344.905 50.864 345.097 50.16C345.161 50.032 345.481 49.456 345.929 48.816C346.441 48.112 346.889 47.728 347.081 47.536C347.401 47.344 347.977 46.896 348.425 46.576C349.001 45.936 349.065 41.904 349.065 41.136V34.352C349.065 33.584 349.833 29.104 347.657 27.504C347.465 27.376 347.017 27.12 346.377 26.928C345.993 26.928 345.801 26.864 345.673 26.864H345.353L345.097 26.608C348.489 23.792 347.785 24.112 350.793 20.848L351.753 20.208ZM386.381 3.76V4.784C384.269 11.504 384.077 8.176 384.077 14.96V26.416V27.12L385.869 26.032L394.381 19.632C395.597 23.152 396.045 24.368 398.925 28.336L397.453 29.552C395.597 30.832 393.869 32.176 392.269 33.712L392.333 34.032C394.061 35.952 394.445 36.848 395.213 39.28L395.597 40.752C396.557 44.208 397.837 49.776 402.573 48.368C400.205 50.544 398.861 51.824 396.493 54.576C395.725 54.576 394.829 54.128 394.061 53.36C393.549 52.848 393.037 52.144 392.397 50.736C391.757 49.456 391.181 47.408 390.861 45.68L390.285 43.056C390.029 41.776 389.773 40.944 389.389 40.176C389.133 39.6 388.877 39.216 388.557 38.768C388.109 38.128 387.917 37.168 387.341 37.552C383.629 40.56 384.013 38.832 384.013 44.4C384.013 46.256 383.757 45.936 385.421 47.088C386.253 47.728 386.445 47.792 386.765 48.048C387.085 48.432 387.853 48.816 388.045 49.392C385.933 50.672 384.653 51.44 381.645 54.256C378.957 51.312 377.933 50.672 374.477 50.48C374.605 50.16 375.245 48.88 375.821 48.432C375.885 48.304 377.677 46.768 377.741 46.448V14.704C377.741 12.976 377.997 11.248 376.205 8.688C380.173 8.048 382.413 6.768 386.381 3.76ZM393.485 31.344L390.797 25.52C390.797 25.52 390.093 24.24 389.965 24.112L384.013 27.952C384.013 27.952 384.013 31.216 384.013 33.968V36.976C384.013 37.424 384.013 38.96 384.013 38.96L393.485 31.344ZM461.478 43.12C461.478 43.12 461.478 39.728 461.478 39.344C461.478 39.344 461.478 37.808 461.478 37.744V11.888C461.478 11.632 461.478 10.416 461.478 10.416L461.222 10.48C459.046 10.928 456.806 11.056 454.63 10.928L441.062 9.776C438.054 9.584 433.51 9.328 430.63 12.08C431.014 9.584 431.654 6.576 434.854 4.208C437.542 2.224 442.982 1.968 447.782 2.544L459.622 3.824C462.63 4.144 466.726 4.144 469.734 2.928C469.862 3.376 469.222 4.208 468.838 4.912C468.134 5.872 467.494 6.64 467.238 6.96C466.982 7.28 466.15 7.984 465.19 8.688C464.358 9.2 462.502 10.096 462.502 10.096C462.502 10.096 462.502 14.32 462.502 14.96V42.288C462.502 42.288 463.782 41.264 464.23 40.88C464.678 40.368 465.062 39.92 465.382 39.536C465.574 39.216 465.894 38.768 466.214 38.32C466.47 38.064 466.854 36.976 467.238 37.552C465.574 44.464 462.054 50.928 454.502 53.68C449.254 55.536 442.726 55.088 437.862 51.376C432.55 47.408 430.438 40.368 430.758 34.864C431.206 27.568 433.062 19.824 441.83 13.232C436.902 20.336 435.558 31.152 438.118 38.384C439.846 42.864 442.47 45.68 446.63 46.832C450.278 47.856 456.934 46.768 460.454 44.016C460.838 43.76 461.158 43.44 461.478 43.12ZM454.63 14V30.96C454.63 34.864 455.142 37.936 450.47 41.648C449.702 42.224 448.934 42.736 448.614 42.928C448.166 43.12 447.014 43.824 446.566 43.696C447.59 42.032 447.846 41.328 447.846 39.664V19.44L445.414 20.976V19.824L454.63 14ZM484.078 20.336C486.19 23.536 487.278 24.432 490.414 23.344C490.03 24.944 490.542 24.624 489.262 26.16C488.814 26.672 488.494 26.992 488.046 27.376C487.662 27.632 487.022 27.888 486.83 28.464V39.856C486.83 40.304 485.87 46.512 488.686 48.432C489.262 48.752 489.71 48.88 491.246 48.88C487.79 52.336 488.11 51.888 485.998 54.64C479.918 52.272 480.494 47.984 480.558 43.248V28.912C480.302 28.464 479.79 28.016 479.214 27.824C478.702 27.376 478.318 26.928 477.742 26.416L475.95 27.12C475.95 26.352 476.782 26.032 477.422 25.584C477.934 25.136 478.83 24.816 479.47 24.112L481.07 22.896C481.518 22.512 481.902 22.192 482.606 21.488C482.926 21.232 483.566 20.336 484.078 20.336ZM484.654 9.712C486.254 12.656 486.766 12.976 489.454 12.848C488.046 15.088 486.766 16.304 484.846 16.432C483.886 16.56 483.054 16.368 482.158 15.792C482.03 15.728 481.198 15.088 480.75 14.832C480.174 14.512 479.726 14.576 479.342 14.576L478.894 14.064L483.438 10.608C483.95 10.288 484.078 9.968 484.654 9.712ZM503.736 19.248C505.976 21.232 506.36 21.552 506.936 23.92C507.128 24.624 507.192 25.2 507.32 26.416C507.32 26.864 507.384 28.528 507.704 28.72C508.856 27.952 510.008 27.056 511.16 26.16L513.208 24.24C513.72 23.792 514.232 23.28 514.744 22.832L518.136 19.824H518.328C521.528 23.088 521.336 26.16 521.528 28.72C521.976 29.232 521.976 29.04 522.296 28.72C522.552 28.592 522.808 28.4 523 28.208C523.448 27.76 523.96 27.568 524.472 27.12L532.92 20.208C533.176 20.912 533.624 22 534.2 22.64C535.672 24.432 536.696 24.496 538.808 23.984C538.808 24.624 538.04 25.84 537.656 26.288C537.272 26.736 536.056 27.696 535.8 28.336C535.672 28.528 535.416 31.728 535.416 32.816V41.648C535.352 43.376 535.544 46.896 536.248 47.792C537.08 48.752 538.168 48.944 539.768 48.944C537.528 51.056 535.992 52.72 534.392 55.088C528.696 52.336 529.144 48.24 529.272 44.016L529.656 33.52C529.784 28.464 530.744 30.256 526.456 26.736C526.008 26.736 525.56 27.184 525.112 27.504C524.856 27.696 524.6 27.888 524.472 28.016L524.088 28.208L523.832 28.4C523.128 29.168 523.192 28.784 522.488 29.552C521.784 30 521.72 29.808 521.272 30.512V41.84C521.272 42.16 521.272 44.208 521.272 44.208V46.832C522.04 47.408 522.104 47.472 522.936 48.112C524.088 48.944 524.792 49.84 524.856 50.16C522.68 51.504 520.632 53.104 518.584 54.768C516.152 50.864 514.488 50.608 511.992 49.712C515.96 45.616 515.064 47.6 515.256 42.736V34.224C515.256 33.328 515.64 27.376 513.464 26.288C512.568 25.84 511.8 26.544 510.328 27.76C509.496 28.528 509.688 28.336 508.856 28.976C508.152 29.68 508.024 29.552 507.448 30.384L507.128 41.392C507.128 41.84 507.128 43.184 507.128 43.504C507.128 44.336 507.128 46.384 507.128 46.384C507.128 46.384 507.384 46.64 508.216 47.28C508.472 47.472 509.88 48.176 510.008 48.624C508.088 50.416 506.296 52.336 504.504 54.32C502.072 50.736 500.92 50.608 497.464 49.392C497.784 48.688 498.616 48.112 499.192 47.664C500.344 46.704 500.024 46.896 501.112 46.256C501.24 46.192 501.176 45.232 501.176 45.232C501.176 45.232 501.176 42.16 501.176 41.84V33.52C501.24 29.616 502.008 26.736 497.592 25.776C500.792 23.024 501.24 22.512 503.736 19.248ZM563.193 19.504C564.089 22.576 567.673 29.04 569.785 31.408L555.577 41.52V44.208V45.488C555.769 46.064 555.961 46.064 556.793 46.32C559.481 47.792 558.521 46.896 560.953 49.008C561.593 48.816 562.297 47.856 563.001 47.792L563.321 48.112L555.577 54.832C552.825 51.312 549.433 50.416 545.977 51.312C546.297 49.904 546.425 49.328 546.809 48.688C547.193 48.048 547.577 47.664 547.769 47.472C548.409 46.832 548.537 47.216 549.049 46.448C549.497 45.872 549.369 41.776 549.369 41.136V29.808C549.369 27.44 549.369 26.224 547.769 23.92C553.465 24.112 557.177 23.792 563.193 19.504ZM555.641 39.088L556.025 39.408C559.929 37.04 559.737 37.296 563.321 34.096C563.321 33.84 563.001 33.008 562.937 32.88L561.145 29.616C560.889 29.168 557.945 23.92 557.305 23.792C557.177 23.792 556.217 24.112 556.025 24.368C555.833 24.624 555.641 29.744 555.641 30.128V39.088ZM591.157 20.208C592.693 21.808 593.717 22.832 595.509 22.32C596.085 22.192 596.533 21.936 596.981 21.552C597.109 21.296 597.557 20.144 598.197 20.4C597.685 24.88 595.573 27.184 591.861 31.728L590.517 33.392H596.277C596.661 33.392 597.621 33.328 597.941 33.712C597.493 34.736 597.301 35.312 597.237 36.72V44.336C597.237 44.72 597.237 45.36 597.237 45.872V47.344C597.301 48.624 597.301 49.712 597.877 51.056C591.541 50.032 588.213 49.712 582.453 54.768C580.661 52.912 578.677 51.12 576.693 51.312C576.117 51.376 574.901 51.76 574.133 52.592C573.749 52.976 573.813 53.744 573.493 54.576C573.429 54.768 573.237 54.576 573.173 54.576C573.045 49.84 576.245 46.576 580.341 41.968L581.429 40.496C581.109 40.304 580.661 40.24 580.341 40.24H576.821C576.245 40.048 576.373 40.496 575.925 40.112C577.077 37.168 576.885 36.912 576.885 33.136V30.256V29.104V27.824C576.885 26.736 576.821 26.224 576.757 25.84L576.437 24.88C576.245 24.56 576.309 24.688 575.989 24.368L575.861 24.048L575.989 23.792C580.213 24.368 586.485 23.536 591.157 20.208ZM584.565 24.368C584.181 24.368 583.157 24.496 583.157 24.944L582.901 35.76C582.901 36.272 582.901 36.4 582.901 36.912L584.501 37.296L589.365 32.56C591.285 30.512 594.037 28.016 595.893 24.368H595.573L595.317 24.624C595.125 24.816 594.805 25.136 594.741 25.2C594.357 25.52 593.973 25.712 593.589 26.096C593.077 26.416 592.245 26.8 591.221 26.928C589.109 27.184 587.957 26.224 586.037 23.984C585.589 23.984 584.693 24.368 584.565 24.368ZM577.973 47.728C579.125 47.28 580.341 46.96 580.917 46.896C583.989 46.448 585.269 47.28 588.021 50.16C588.341 50.16 589.365 49.776 589.685 49.776C590.133 49.648 591.221 49.648 591.221 49.648V38.064C591.221 37.232 591.285 37.04 591.029 36.592C590.517 36.272 588.277 36.336 587.829 36.336C587.701 36.336 587.445 36.4 586.805 37.104L583.221 40.944C583.221 40.944 580.213 43.76 578.421 45.616C577.461 46.64 575.861 48.496 575.861 48.496C575.861 48.496 575.669 48.816 575.605 48.944C575.221 49.904 576.245 48.432 577.973 47.728Z" fill="white"/>
</svg>
